<svg width="212" height="117" viewBox="0 0 212 117" fill="none" xmlns="http://www.w3.org/2000/svg">
<circle cx="28.5" cy="28.5" r="28.5" fill="#1AC0EA"/>
<circle cx="51" cy="46" r="18" fill="#11BBE6"/>
<circle cx="63.5" cy="62.5" r="10.5" fill="#00A5CE"/>
<path d="M91.2812 79.7188C91.2812 84.1771 90.5312 88.0729 89.0312 91.4062C87.5312 94.7188 85.4062 97.25 82.6562 99C79.9062 100.75 76.6979 101.625 73.0312 101.625C69.4479 101.625 66.2708 100.75 63.5 99C60.7292 97.2292 58.5729 94.7188 57.0312 91.4688C55.5104 88.1979 54.7292 84.4167 54.6875 80.125V76.8438C54.6875 72.4688 55.4479 68.6042 56.9688 65.25C58.4896 61.8958 60.6354 59.3333 63.4062 57.5625C66.1979 55.7708 69.3854 54.875 72.9688 54.875C76.6146 54.875 79.8229 55.7604 82.5938 57.5312C85.3854 59.2812 87.5312 61.8333 89.0312 65.1875C90.5312 68.5208 91.2812 72.4062 91.2812 76.8438V79.7188ZM85.3125 76.7812C85.3125 71.3854 84.2292 67.25 82.0625 64.375C79.8958 61.4792 76.8646 60.0312 72.9688 60.0312C69.1771 60.0312 66.1875 61.4792 64 64.375C61.8333 67.25 60.7188 71.25 60.6562 76.375V79.7188C60.6562 84.9479 61.75 89.0625 63.9375 92.0625C66.1458 95.0417 69.1771 96.5312 73.0312 96.5312C76.9062 96.5312 79.9062 95.125 82.0312 92.3125C84.1562 89.4792 85.25 85.4271 85.3125 80.1562V76.7812ZM105.656 101H99.875V53H105.656V101ZM121.219 101H115.438V53H121.219V101ZM144.531 101.625C139.948 101.625 136.219 100.125 133.344 97.125C130.469 94.1042 129.031 90.0729 129.031 85.0312V83.9688C129.031 80.6146 129.667 77.625 130.938 75C132.229 72.3542 134.021 70.2917 136.312 68.8125C138.625 67.3125 141.125 66.5625 143.812 66.5625C148.208 66.5625 151.625 68.0104 154.062 70.9062C156.5 73.8021 157.719 77.9479 157.719 83.3438V85.75H134.812C134.896 89.0833 135.865 91.7812 137.719 93.8438C139.594 95.8854 141.969 96.9062 144.844 96.9062C146.885 96.9062 148.615 96.4896 150.031 95.6562C151.448 94.8229 152.688 93.7188 153.75 92.3438L157.281 95.0938C154.448 99.4479 150.198 101.625 144.531 101.625ZM143.812 71.3125C141.479 71.3125 139.521 72.1667 137.938 73.875C136.354 75.5625 135.375 77.9375 135 81H151.938V80.5625C151.771 77.625 150.979 75.3542 149.562 73.75C148.146 72.125 146.229 71.3125 143.812 71.3125ZM180.781 72.375C179.906 72.2292 178.958 72.1562 177.938 72.1562C174.146 72.1562 171.573 73.7708 170.219 77V101H164.438V67.1875H170.062L170.156 71.0938C172.052 68.0729 174.74 66.5625 178.219 66.5625C179.344 66.5625 180.198 66.7083 180.781 67V72.375ZM195.531 59V67.1875H201.844V71.6562H195.531V92.625C195.531 93.9792 195.812 95 196.375 95.6875C196.938 96.3542 197.896 96.6875 199.25 96.6875C199.917 96.6875 200.833 96.5625 202 96.3125V101C200.479 101.417 199 101.625 197.562 101.625C194.979 101.625 193.031 100.844 191.719 99.2812C190.406 97.7188 189.75 95.5 189.75 92.625V71.6562H183.594V67.1875H189.75V59H195.531Z" fill="black"/>
<path d="M57.5 102H211M211 59.5V94.5" stroke="#00A5CE"/>
</svg>
